{
  "accessors": [
    {
      "bufferView": 2,
      "componentType": 5126,
      "count": 1466,
      "max": [
        8.155599594116211,
        29.043195724487305,
        62.94390106201172
      ],
      "min": [
        -14.588899612426758,
        -10.347208976745605,
        26.621803283691406
      ],
      "type": "VEC3"
    },
    {
      "bufferView": 2,
      "byteOffset": 17592,
      "componentType": 5126,
      "count": 1466,
      "max": [
        0.998973548412323,
        0.9994389414787292,
        0.9919717907905579
      ],
      "min": [
        -0.9997023344039917,
        -0.9902796745300293,
        -0.9965136051177979
      ],
      "type": "VEC3"
    },
    {
      "bufferView": 3,
      "componentType": 5126,
      "count": 1466,
      "max": [
        0.9996841549873352,
        0.9953842759132385,
        0.9995773434638977,
        1.0
      ],
      "min": [
        -0.9990519285202026,
        -0.9997977018356323,
        -0.9999537467956543,
        -1.0
      ],
      "type": "VEC4"
    },
    {
      "bufferView": 1,
      "componentType": 5126,
      "count": 1466,
      "max": [
        0.9098250269889832,
        0.9541440010070801
      ],
      "min": [
        0.00047070300206542015,
        0.00047070300206542015
      ],
      "type": "VEC2"
    },
    {
      "bufferView": 0,
      "componentType": 5125,
      "count": 5115,
      "type": "SCALAR"
    }
  ],
  "asset": {
    "extras": {
      "author": "J0Y (https://sketchfab.com/lloydrostek)",
      "license": "CC-BY-4.0 (http://creativecommons.org/licenses/by/4.0/)",
      "source": "https://sketchfab.com/3d-models/plague-mask-a54d7994219343a28b03b1206b4591f2",
      "title": "Plague Mask"
    },
    "generator": "Sketchfab-12.67.0",
    "version": "2.0"
  },
  "bufferViews": [
    {
      "buffer": 0,
      "byteLength": 20460,
      "name": "floatBufferViews",
      "target": 34963
    },
    {
      "buffer": 0,
      "byteLength": 11728,
      "byteOffset": 20460,
      "byteStride": 8,
      "name": "floatBufferViews",
      "target": 34962
    },
    {
      "buffer": 0,
      "byteLength": 35184,
      "byteOffset": 32188,
      "byteStride": 12,
      "name": "floatBufferViews",
      "target": 34962
    },
    {
      "buffer": 0,
      "byteLength": 23456,
      "byteOffset": 67372,
      "byteStride": 16,
      "name": "floatBufferViews",
      "target": 34962
    }
  ],
  "buffers": [
    {
      "byteLength": 90828,
      "uri": "scene.bin"
    }
  ],
  "images": [
    {
      "uri": "textures/Mask_baseColor.jpeg"
    },
    {
      "uri": "textures/Mask_metallicRoughness.png"
    },
    {
      "uri": "textures/Mask_normal.png"
    }
  ],
  "materials": [
    {
      "doubleSided": true,
      "name": "Mask",
      "normalTexture": {
        "index": 2
      },
      "occlusionTexture": {
        "index": 1
      },
      "pbrMetallicRoughness": {
        "baseColorTexture": {
          "index": 0
        },
        "metallicRoughnessTexture": {
          "index": 1
        }
      }
    }
  ],
  "meshes": [
    {
      "name": "Costum - Copy.001_Mask_0",
      "primitives": [
        {
          "attributes": {
            "NORMAL": 1,
            "POSITION": 0,
            "TANGENT": 2,
            "TEXCOORD_0": 3
          },
          "indices": 4,
          "material": 0,
          "mode": 4
        }
      ]
    }
  ],
  "nodes": [
    {
      "children": [
        1
      ],
      "matrix": [
        1.0,
        0.0,
        0.0,
        0.0,
        0.0,
        2.220446049250313e-16,
        -1.0,
        0.0,
        0.0,
        1.0,
        2.220446049250313e-16,
        0.0,
        0.0,
        0.0,
        0.0,
        1.0
      ],
      "name": "Sketchfab_model"
    },
    {
      "children": [
        2
      ],
      "matrix": [
        1.0,
        0.0,
        0.0,
        0.0,
        0.0,
        0.0,
        1.0,
        0.0,
        0.0,
        -1.0,
        0.0,
        0.0,
        0.0,
        0.0,
        0.0,
        1.0
      ],
      "name": "4eeeaf87b6b84a89be8bcc3294d4c3ad.fbx"
    },
    {
      "children": [
        3
      ],
      "name": "RootNode"
    },
    {
      "children": [
        4
      ],
      "matrix": [
        100.0,
        0.0,
        0.0,
        0.0,
        0.0,
        -1.629206793918314e-05,
        -99.99999999999868,
        0.0,
        0.0,
        99.99999999999868,
        -1.629206793918314e-05,
        0.0,
        0.0,
        0.0,
        0.0,
        1.0
      ],
      "name": "Costum - Copy.001"
    },
    {
      "mesh": 0,
      "name": "Costum - Copy.001_Mask_0"
    }
  ],
  "samplers": [
    {
      "magFilter": 9729,
      "minFilter": 9987,
      "wrapS": 10497,
      "wrapT": 10497
    }
  ],
  "scene": 0,
  "scenes": [
    {
      "name": "Sketchfab_Scene",
      "nodes": [
        0
      ]
    }
  ],
  "textures": [
    {
      "sampler": 0,
      "source": 0
    },
    {
      "sampler": 0,
      "source": 1
    },
    {
      "sampler": 0,
      "source": 2
    }
  ]
}
